<?xml version="1.0" encoding="utf-8"?>
<!-- Generator: Adobe Illustrator 19.0.0, SVG Export Plug-In . SVG Version: 6.00 Build 0)  -->
<svg version="1.1" xmlns="http://www.w3.org/2000/svg" xmlns:xlink="http://www.w3.org/1999/xlink" x="0px" y="0px"
	 viewBox="-281 373 48 48" style="enable-background:new -281 373 48 48;" xml:space="preserve">
<style type="text/css">
	.st0{display:none;}
	.st1{display:inline;fill:#FFFFFF;}
	.st2{display:inline;}
	.st3{fill:#FFFFFF;}
</style>
<g id="Layer_1" class="st0">
	<path class="st1" d="M-261.7,419h-0.3l0,0c-0.6,0-1,0.4-1,1s0.4,1,1,1h0h10h0c0.6,0,1-0.4,1-1s-0.4-1-1-1l0,0h-0.3l3.3-10l-8-8
		l-8,8L-261.7,419z M-257,403.8l5.7,5.7l-3.1,9.5h-1.6v-7l0,0c0-0.6-0.4-1-1-1s-1,0.4-1,1l0,0v7h-1.6l-3.2-9.5L-257,403.8z"/>
	<path class="st1" d="M-235.2,379h2.2v-6h-6v6h1.8c-0.2,1.6-0.7,3.2-1.3,4.8c-1,2.4-2.4,4.5-4.3,6.4c-1.8,1.8-4,3.3-6.4,4.3
		c-1.5,0.7-3.1,1.1-4.8,1.3V395h-6v0.8c-1.6-0.2-3.2-0.7-4.8-1.3c-2.4-1-4.5-2.4-6.4-4.3c-1.8-1.8-3.3-4-4.3-6.4
		c-0.7-1.5-1.1-3.1-1.3-4.8h1.8v-6h-6v6h2.2c1.2,8.5,7.2,15.5,15.2,18h-11.6c-0.4-1.2-1.5-2-2.8-2c-1.7,0-3,1.3-3,3c0,1.7,1.3,3,3,3
		c1.3,0,2.4-0.8,2.8-2h15.2v2h3h3v-2h15.2c0.4,1.2,1.5,2,2.8,2c1.7,0,3-1.3,3-3c0-1.7-1.3-3-3-3c-1.3,0-2.4,0.8-2.8,2h-11.6
		C-242.4,394.5-236.4,387.5-235.2,379z M-235,377h-2v-2h2V377z M-279,375h2v2h-2V375z M-278,399c-0.6,0-1-0.4-1-1c0-0.6,0.4-1,1-1
		s1,0.4,1,1C-277,398.6-277.4,399-278,399z M-256,399h-2v-2h2V399z M-236,397c0.6,0,1,0.4,1,1c0,0.6-0.4,1-1,1s-1-0.4-1-1
		C-237,397.4-236.6,397-236,397z"/>
</g>
<g id="Layer_2" class="st0">
	<g class="st2">
		<path class="st3" d="M-234.4,391.1l-2.6-10.8c0-0.1-0.7-2.6-3.1-3.7c-1.8-0.8-7.5-2.9-9-3.5c-0.1-0.1-0.3-0.2-0.5-0.2h-14.7
			c0,0,0,0,0,0h0c0,0,0,0,0,0c0,0,0,0,0,0s0,0,0,0s0,0,0,0c-0.3,0.1-7.2,2.7-9.3,3.6c-2.4,1-3.1,3.4-3.2,3.7v0c0,0,0,0,0,0l-1.8,7.6
			l-0.8,3.1c-0.1,0.4,0.1,0.7,0.5,0.9l7.4,3v25.3c0,0.4,0.3,0.8,0.8,0.8h27.8c0.4,0,0.8-0.3,0.8-0.8v-25.3l7.5-3
			C-234.5,391.8-234.3,391.4-234.4,391.1z M-238.5,380.5C-238.5,380.6-238.5,380.6-238.5,380.5
			C-238.5,380.6-238.5,380.6-238.5,380.5C-238.5,380.6-238.5,380.6-238.5,380.5L-238.5,380.5c0,0.1,0,0.1,0,0.1c0,0,0,0,0,0
			c0,0,0,0,0,0c0,0,0,0,0,0c0,0,0,0,0,0l1.7,7l-5.5,2.3v-4.5l3.4-5.7C-238.7,380.1-238.6,380.4-238.5,380.5z M-250.4,374.5
			c-0.3,4.1-3.5,6.9-6.5,6.9c-3,0-6.2-2.7-6.5-6.9H-250.4z M-271.7,393.3l-6.3-2.5l0.4-1.6l5.9,2.5V393.3z M-271.7,390l-5.5-2.3
			l1.7-7c0,0,0.1-0.4,0.4-0.9l3.4,5.7V390z M-243.7,384.9c-0.1,0.1-0.1,0.3-0.1,0.4v31.1v1.5v1.6h-26.3v-1.6v-1.5v-31.1
			c0-0.1,0-0.3-0.1-0.4l-3.8-6.3c0.2-0.2,0.5-0.4,0.9-0.5c1.5-0.7,6.2-2.4,8.2-3.2c0.5,4.5,4,8.1,8,8.1c4,0,7.5-3.6,8-8
			c2.1,0.8,6.6,2.5,8.1,3.2c0.3,0.1,0.6,0.3,0.9,0.5L-243.7,384.9z M-242.3,393.3v-1.6l5.9-2.5l0.4,1.6L-242.3,393.3z"/>
		<path class="st3" d="M-266.3,399.6l5-8.3l2.4,4l4.5-7.9l7,12.2H-266.3z M-258.8,398.1h8.6l-4.3-7.5L-258.8,398.1z M-263.6,398.1h3
			l0.7-1.2l-1.5-2.5L-263.6,398.1z"/>
		<path class="st3" d="M-247.9,403.2h-17.9c-0.4,0-0.8-0.3-0.8-0.8l0,0c0-0.4,0.3-0.8,0.8-0.8h17.9c0.4,0,0.8,0.3,0.8,0.8l0,0
			C-247.2,402.9-247.5,403.2-247.9,403.2z"/>
		<path class="st3" d="M-251.4,406.1h-11.1c-0.4,0-0.8-0.3-0.8-0.8l0,0c0-0.4,0.3-0.8,0.8-0.8h11.1c0.4,0,0.8,0.3,0.8,0.8l0,0
			C-250.6,405.8-250.9,406.1-251.4,406.1z"/>
	</g>
</g>
<g id="Layer_3">
	<g>
		<path class="st3" d="M-236.2,411.1c0-4.2-3.4-7.5-7.5-7.5c-0.6,0-1.1,0.1-1.6,0.2l-5-5l13.5-13.5c2.3-2.3,2.3-6.1,0-8.5
			c-1.2-1.2-2.7-1.8-4.2-1.8s-3.1,0.6-4.2,1.8l0,0l-13.5,13.5l-15.4-15.4c-0.8-0.8-1.8-1.2-2.8-1.2c-1,0-2,0.4-2.8,1.2
			c-1.6,1.6-1.6,4.1,0,5.7l15.4,15.4l-14.6,14.6v8.5h8.5l14.6-14.6l4.9,4.9c-0.1,0.6-0.2,1.1-0.2,1.7c0,8.5,12.6,9.2,16.7,9.2
			C-230.3,420.3-236.2,415.3-236.2,411.1z M-241,377c1.1,0,2.1,0.4,2.8,1.2c1.6,1.6,1.6,4.1,0,5.7l-1.4,1.4l-5.7-5.7l1.4-1.4
			C-243.1,377.4-242.1,377-241,377z M-278.4,379.1c-0.8-0.8-0.8-2,0-2.8c0.4-0.4,0.9-0.6,1.4-0.6c0.5,0,1,0.2,1.4,0.6l15.4,15.4
			l-2.8,2.8L-278.4,379.1z M-277,417v-1.7l1.7,1.7H-277z M-271.3,417h-1.2l-4.5-4.5v-1.2l30.3-30.3l2.1,2.1l-27.4,27.4l0,0l0,0
			c-0.4,0.4-0.4,1,0,1.4c0.4,0.4,1,0.4,1.4,0l27.4-27.4l2.1,2.1L-271.3,417z M-254.5,403l2.8-2.8l4.3,4.3c-1.2,0.7-2.2,1.6-2.8,2.8
			L-254.5,403z M-243.8,417c-1.7-0.6-3.1-1.3-4-2.3c-1-1-1.5-2.2-1.5-3.6c0-1.5,0.6-2.9,1.6-3.9c1-1,2.4-1.6,3.9-1.6
			c3,0,5.5,2.5,5.5,5.5c0,2.3,1.2,4.5,2.2,6.3c0.1,0.3,0.3,0.6,0.5,0.9C-237.6,418.2-240.9,418-243.8,417z"/>
	</g>
</g>
<g id="Layer_4" class="st0">
	<g class="st2">
		<path class="st3" d="M-234.1,373.4c-9.2,1.8-17.6,6.3-24.3,12.9l-8.7,0.4c-0.2,0-0.5,0.1-0.7,0.3l-9,9c-0.4,0.4-0.4,1,0,1.4
			c0.2,0.2,0.4,0.3,0.7,0.3h0.1l10.1-0.7c-0.4,0.8-0.8,1.7-1.1,2.6c-0.1,0.4-0.1,0.8,0.2,1.1l6.6,6.6c0.3,0.3,0.7,0.4,1.1,0.2
			c0.9-0.4,1.8-0.8,2.7-1.2l-0.7,10.2c0,0.5,0.4,1,0.9,1c0.3,0,0.6-0.1,0.8-0.3l9-9c0.2-0.2,0.3-0.4,0.3-0.7l0.5-8.9
			c6.5-6.7,10.9-15.1,12.7-24.2c0.1-0.5-0.3-1-0.8-1.1C-233.9,373.3-234,373.3-234.1,373.4z M-273.5,395.4l6.8-6.8l6.3-0.3
			c-1.7,2-3.2,4.2-4.5,6.6L-273.5,395.4z M-248.2,407.1l-6.8,6.8l0.6-8.8c2.3-1.3,4.5-2.8,6.6-4.5L-248.2,407.1z M-259.2,405.3
			l-5.7-5.7c7.2-17.6,24.6-22.8,29.7-24C-236.4,380.7-241.6,398.1-259.2,405.3z"/>
		<path class="st3" d="M-279.3,411.8c0.3,0,0.5-0.1,0.7-0.3l9.2-9.2c0.4-0.4,0.4-1,0-1.4c-0.4-0.4-1-0.4-1.4,0l0,0l-9.2,9.1
			c-0.4,0.4-0.5,1-0.1,1.4C-279.9,411.7-279.6,411.8-279.3,411.8z"/>
		<path class="st3" d="M-269.2,409.5c-0.4-0.4-1-0.4-1.4,0l-9.2,9.2c-0.5,0.3-0.6,0.9-0.3,1.4s0.9,0.6,1.4,0.3
			c0.1-0.1,0.3-0.2,0.3-0.3l9.2-9.2C-268.8,410.5-268.8,409.9-269.2,409.5C-269.1,409.5-269.2,409.5-269.2,409.5z"/>
		<path class="st3" d="M-261.9,409.7l-9.2,9.2c-0.4,0.4-0.5,1-0.1,1.4c0.4,0.4,1,0.5,1.4,0.1c0,0,0.1-0.1,0.1-0.1l9.1-9.2
			c0.4-0.4,0.3-1-0.1-1.4C-261.1,409.4-261.6,409.4-261.9,409.7L-261.9,409.7z"/>
		<path class="st3" d="M-246,390.7c2.4,0,4.4-2,4.4-4.4s-2-4.4-4.4-4.4s-4.4,2-4.4,4.4c0,1.2,0.5,2.3,1.3,3.1
			C-248.3,390.3-247.2,390.7-246,390.7z M-247.7,384.6c1-1,2.5-1,3.5,0s1,2.5,0,3.5l0,0c-1,0.9-2.5,0.9-3.5,0
			C-248.7,387.1-248.7,385.6-247.7,384.6L-247.7,384.6z"/>
	</g>
</g>
</svg>
