<?xml version="1.0" encoding="utf-8"?>
<!-- Generator: Adobe Illustrator 19.0.0, SVG Export Plug-In . SVG Version: 6.00 Build 0)  -->
<svg version="1.1" id="Capa_1" xmlns="http://www.w3.org/2000/svg" xmlns:xlink="http://www.w3.org/1999/xlink" x="0px" y="0px"
	 viewBox="139 -139.7 478.7 478.7" style="enable-background:new 139 -139.7 478.7 478.7;" xml:space="preserve">
<style type="text/css">
	.st0{fill:#FFFFFF;}
</style>
<path class="st0" d="M369.6,181.5c-6.2,0-11.3-5.1-11.3-11.3V-43.3l-76.9-77.8c-0.1-0.1-0.2-0.2-0.4-0.4c-2.1-2.2-3.2-5.1-3.1-8.1
	c0.1-3,1.3-5.8,3.5-7.9l97.4-86.9c1.1-1,2.3-1.7,3.7-2.2l70.8-25.6c1-0.4,2.1-0.6,3.2-0.6c0.2,0,0.4,0,0.6,0c6,0,11,4.7,11.3,10.7
	c0.1,2,2.7,47.4,48.6,48.1c46.2-0.7,48.3-47.6,48.3-48v-0.1c0.1-1.1,0.3-2.2,0.7-3.3c1.6-4.5,5.9-7.4,10.6-7.4
	c1.3,0,2.6,0.2,3.9,0.7l70.9,25.3c1.4,0.5,2.7,1.3,3.7,2.3l98,87.1c0.2,0.2,0.3,0.3,0.5,0.4c4.3,4.5,4.1,11.7-0.4,16l-76.9,77.7
	v213.4c0,6.2-5.1,11.3-11.3,11.3H369.6V181.5z M653.4,158.4v-272.3c0-6.2,5.1-11.3,11.3-11.3s11.3,5.1,11.3,11.3v38.4l52.3-53
	l-86.6-77.7l-55.8-20.1c-6.2,27.3-27.7,48.3-55.4,53.6c-4.5,0.9-9,1.3-13.5,1.3c-32.9,0-61.5-23-68.8-54.9l-55.8,20.1l-86.8,77.7
	L358-75.4v-38.5c0-6.2,5.1-11.3,11.3-11.3c6.2,0,11.3,5.1,11.3,11.3v272.3L653.4,158.4L653.4,158.4z"/>
<path class="st0" d="M517.3-123.4l-50.6,87.7c-5.1,8.8-7.8,18.9-7.8,29.2c0,32.2,26.2,58.5,58.5,58.5c32.2,0,58.5-26.2,58.5-58.5
	c0-10.3-2.7-20.4-7.8-29.2L517.3-123.4z M517.3,28.6c-19.3,0-35.1-15.7-35.1-35.1c0-6.2,1.6-12.2,4.7-17.5l30.4-52.6L547.7-24
	c3.1,5.3,4.7,11.3,4.7,17.5C552.4,12.9,536.6,28.6,517.3,28.6L517.3,28.6z"/>
</svg>
